<svg id="Layer_1" data-name="Layer 1" xmlns="http://www.w3.org/2000/svg" viewBox="0 0 704 427.19"><defs><style>.cls-1{fill:#f4f4f4;}</style></defs><title>Big-footer-logo-KDS</title><path class="cls-1" d="M57,431.48H14.54V28.82c0-13.16,9-15.55,13.77-16.15H57V165.23L109.67,13.87h44.88L86.94,202.33l72.39,229.15H114.46L57,244.21Z" transform="translate(-14.54 -8.48)"/><path class="cls-1" d="M382.82,12.67c29.32,0,52.65,23.33,53.25,52.65V378.83c-.6,29.32-23.93,52.65-53.25,52.65H299.65V12.67Zm10.77,64.61c0-15.55-10.77-21.53-22.73-21.53H342.74V389h28.12c12,0,22.73-6,22.73-22.14Z" transform="translate(-14.54 -8.48)"/><path class="cls-1" d="M674.83,118V69.51c0-13.17-10.17-23.34-22.73-23.34s-22.74,10.17-22.74,23.34v40.08c0,24.53,18.55,56.24,18.55,56.24l51.45,96.93c20.94,38.29,19.15,66.41,19.15,66.41v53.25c0,29.31-23.93,53.25-53.85,53.25H637.73a54.34,54.34,0,0,1-52-53.25V339.34c0-13.76,6.57-20.34,12-23.33,3.59-1.2,20.94-9,31.71-13.76v73A22.72,22.72,0,0,0,652.1,398c12.56,0,22.73-10.17,22.73-23.33V326.78c0-24.53-18.54-56.84-18.54-56.84l-51.46-96.33c-20.94-38.29-19.14-66.41-19.14-66.41V64.12c0-29.32,23.93-55.64,53.84-55.64h26.93c28.71.6,52,26.92,52,55.64V80.27c0,13.77-6.58,20.35-12,23.34C703,105.4,686.2,113.18,674.83,118Z" transform="translate(-14.54 -8.48)"/></svg>