<svg id="Layer_1" data-name="Layer 1" xmlns="http://www.w3.org/2000/svg" viewBox="0 0 100 64.54"><defs><style>.cls-1{fill:#002bff;}.cls-2{fill:#fff;}</style></defs><title>KDS-logo-blue</title><rect class="cls-1" x="17.73" y="-17.73" width="64.54" height="100" transform="translate(17.73 82.27) rotate(-90)"/><path class="cls-2" d="M21.78,51.31H17.93V14.75a1.31,1.31,0,0,1,1.25-1.46h2.6V27.14L26.56,13.4h4.08L24.5,30.5l6.57,20.81H27l-5.22-17Z"/><path class="cls-2" d="M51.36,13.29a4.83,4.83,0,0,1,4.83,4.78V46.53a4.83,4.83,0,0,1-4.83,4.78H43.81v-38Zm1,5.86a1.85,1.85,0,0,0-2.07-1.95H47.72V47.45h2.55a1.87,1.87,0,0,0,2.07-2Z"/><path class="cls-2" d="M77.87,22.85v-4.4a2.07,2.07,0,1,0-4.13,0v3.64a12.79,12.79,0,0,0,1.68,5.1L80.09,36a12.24,12.24,0,0,1,1.74,6v4.83a4.86,4.86,0,0,1-4.89,4.84H74.5a4.94,4.94,0,0,1-4.73-4.84V42.94a2.24,2.24,0,0,1,1.09-2.12c.33-.1,1.9-.81,2.88-1.24V46.2a2.07,2.07,0,1,0,4.13-.05V41.8c0-2.22-1.69-5.16-1.69-5.16L71.51,27.9a12.24,12.24,0,0,1-1.74-6V18a5,5,0,0,1,4.89-5.05h2.45A5.05,5.05,0,0,1,81.83,18v1.47a2.23,2.23,0,0,1-1.09,2.11C80.42,21.71,78.9,22.41,77.87,22.85Z"/></svg>