<svg id="Layer_1" data-name="Layer 1" xmlns="http://www.w3.org/2000/svg" viewBox="0 0 100 90.26"><defs><style>.cls-1{fill:#002bff;}.cls-2{fill:#fff;}</style></defs><title>KDS-navbar-logo</title><rect class="cls-1" x="4.87" y="-4.87" width="90.26" height="100" transform="translate(4.87 95.13) rotate(-90)"/><path class="cls-2" d="M21.78,77H17.93V40.47A1.31,1.31,0,0,1,19.18,39h2.6V52.86l4.78-13.74h4.08L24.5,56.22,31.07,77H27L21.78,60Z"/><path class="cls-2" d="M51.36,39a4.83,4.83,0,0,1,4.83,4.78V72.25A4.83,4.83,0,0,1,51.36,77H43.81V39Zm1,5.86a1.85,1.85,0,0,0-2.07-1.95H47.72V73.17h2.55a1.87,1.87,0,0,0,2.07-2Z"/><path class="cls-2" d="M77.87,48.57v-4.4a2.07,2.07,0,1,0-4.13,0v3.64a12.79,12.79,0,0,0,1.68,5.1l4.67,8.8a12.24,12.24,0,0,1,1.74,6v4.83a4.86,4.86,0,0,1-4.89,4.84H74.5a4.94,4.94,0,0,1-4.73-4.84V68.66a2.24,2.24,0,0,1,1.09-2.12c.33-.1,1.9-.81,2.88-1.24v6.62a2.07,2.07,0,1,0,4.13,0V67.52c0-2.22-1.69-5.16-1.69-5.16l-4.67-8.74a12.24,12.24,0,0,1-1.74-6V43.68a5,5,0,0,1,4.89-5h2.45a5.05,5.05,0,0,1,4.72,5v1.47a2.23,2.23,0,0,1-1.09,2.11C80.42,47.43,78.9,48.13,77.87,48.57Z"/></svg>